<?xml version="1.0" encoding="iso-8859-1"?>
<!-- Generator: Adobe Illustrator 19.0.0, SVG Export Plug-In . SVG Version: 6.00 Build 0)  -->
<svg version="1.1" id="Layer_1" xmlns="http://www.w3.org/2000/svg" xmlns:xlink="http://www.w3.org/1999/xlink" x="0px" y="0px"
	 viewBox="0 0 512 512" style="enable-background:new 0 0 512 512;" xml:space="preserve">
<g transform="translate(1 1)">
	<g>
		<path style="fill:#E2E3E5;" d="M380.673,352.745c-2.793,0-4.655-0.931-6.516-2.793c-3.724-3.724-3.724-9.309,0-13.033
			l111.709-111.709c3.724-3.724,9.309-3.724,13.033,0s3.724,9.309,0,13.033L387.189,349.953
			C385.327,351.815,383.465,352.745,380.673,352.745z"/>
		<path style="fill:#E2E3E5;" d="M492.382,241.036c-2.793,0-4.655-0.931-6.516-2.793L374.156,126.535
			c-3.724-3.724-3.724-9.309,0-13.033c3.724-3.724,9.309-3.724,13.033,0l111.709,111.709c3.724,3.724,3.724,9.309,0,13.033
			C497.036,240.105,495.174,241.036,492.382,241.036z"/>
		<path style="fill:#E2E3E5;" d="M492.382,241.036H268.964c-5.585,0-9.309-3.724-9.309-9.309s3.724-9.309,9.309-9.309h223.418
			c5.585,0,9.309,3.724,9.309,9.309S497.967,241.036,492.382,241.036z"/>
	</g>
	<polygon style="fill:#E0E0E0;" points="222.418,73.473 17.618,8.309 17.618,436.527 222.418,501.691 	"/>
	<polygon style="fill:#EEEEEE;" points="147.945,54.855 17.618,8.309 17.618,436.527 147.945,483.073 	"/>
	<polygon style="fill:#F0F0F0;" points="194.491,73.473 45.545,8.309 45.545,436.527 194.491,501.691 	"/>
	<polygon style="fill:#E2E3E5;" points="45.545,8.309 250.345,73.473 250.345,436.527 250.345,436.527 362.055,436.527 
		362.055,278.273 362.055,166.564 362.055,8.309 	"/>
	<polygon style="fill:#CCCCCC;" points="17.618,8.309 222.418,73.473 222.418,436.527 222.418,436.527 334.127,436.527 
		334.127,278.273 334.127,166.564 334.127,8.309 	"/>
	<polygon style="fill:#E2E3E5;" points="17.618,8.309 222.418,73.473 222.418,436.527 222.418,436.527 306.2,436.527 306.2,278.273 
		306.2,166.564 306.2,8.309 	"/>
	<g>
		<path style="fill:#B6B6B6;" d="M380.673,343.436c-2.793,0-4.655-0.931-6.516-2.793c-3.724-3.724-3.724-9.309,0-13.033
			l111.709-111.709c3.724-3.724,9.309-3.724,13.033,0s3.724,9.309,0,13.033L387.189,340.644
			C385.327,342.505,383.465,343.436,380.673,343.436z"/>
		<path style="fill:#B6B6B6;" d="M492.382,231.727c-2.793,0-4.655-0.931-6.516-2.793L374.156,117.225
			c-3.724-3.724-3.724-9.309,0-13.033c3.724-3.724,9.309-3.724,13.033,0l111.709,111.709c3.724,3.724,3.724,9.309,0,13.033
			C497.036,230.796,495.174,231.727,492.382,231.727z"/>
		<path style="fill:#B6B6B6;" d="M492.382,231.727H268.964c-5.585,0-9.309-3.724-9.309-9.309c0-5.585,3.724-9.309,9.309-9.309
			h223.418c5.585,0,9.309,3.724,9.309,9.309C501.691,228.004,497.967,231.727,492.382,231.727z"/>
		<path style="fill:#B6B6B6;" d="M334.127,445.836H222.418c-5.585,0-9.309-3.724-9.309-9.309c0-5.585,3.724-9.309,9.309-9.309h102.4
			V278.273c0-5.585,3.724-9.309,9.309-9.309s9.309,3.724,9.309,9.309v158.255C343.436,442.113,339.713,445.836,334.127,445.836z"/>
		<path style="fill:#B6B6B6;" d="M17.618,445.836c-5.585,0-9.309-3.724-9.309-9.309V8.309C8.309,2.724,12.033-1,17.618-1h316.509
			c5.585,0,9.309,3.724,9.309,9.309v158.255c0,5.585-3.724,9.309-9.309,9.309s-9.309-3.724-9.309-9.309V17.618H26.927v418.909
			C26.927,442.113,23.204,445.836,17.618,445.836z"/>
		<path style="fill:#B6B6B6;" d="M222.418,511c-0.931,0-1.862,0-2.793,0l-204.8-65.164c-3.724-1.862-6.516-5.585-6.516-9.309V8.309
			c0-2.793,1.862-5.585,3.724-7.447C14.825-1,17.618-1,20.411-1l204.8,65.164c3.724,1.862,6.516,5.585,6.516,9.309v428.218
			c0,2.793-1.862,5.585-3.724,7.447C226.142,510.069,224.28,511,222.418,511z M26.927,430.011l186.182,59.578v-409.6L26.927,21.342
			V430.011z"/>
	</g>
</g>
<g>
</g>
<g>
</g>
<g>
</g>
<g>
</g>
<g>
</g>
<g>
</g>
<g>
</g>
<g>
</g>
<g>
</g>
<g>
</g>
<g>
</g>
<g>
</g>
<g>
</g>
<g>
</g>
<g>
</g>
</svg>
